<?xml version="1.0" standalone="no"?><!DOCTYPE svg PUBLIC "-//W3C//DTD SVG 1.1//EN" "http://www.w3.org/Graphics/SVG/1.1/DTD/svg11.dtd"><svg t="1549537814531" class="icon" style="" viewBox="0 0 1024 1024" version="1.1" xmlns="http://www.w3.org/2000/svg" p-id="3009" xmlns:xlink="http://www.w3.org/1999/xlink" width="200" height="200"><defs><style type="text/css"></style></defs><path d="M951.629227 209.968106c4.562922 5.14109 7.402597 11.423167 7.402597 18.274202 0 3.420913-0.559748 6.841825-1.700735 9.701966-0.579191 1.710968-1.13894 2.850931-2.28095 3.990894l0.559748 0.571005-3.419889 4.001127L408.727427 809.944809l-1.700735 2.299369-0.580215 0c-1.700735 1.701758-3.981684 2.841721-6.262634 3.982708-2.860141 1.139963-6.261611 1.720178-9.701966 1.720178l0 0c-3.981684 0-6.842849-0.579191-10.244318-1.720178-2.860141-1.139963-5.721305-3.420913-8.001231-5.701862l0 0L70.006935 508.535085l0 0c-2.28095-2.28095-4.002151-5.140067-5.122671-8.562003l0 0c-1.720178-2.850931-2.28095-6.281053-2.28095-9.701966l0 0 0 0c0-7.42204 2.840698-13.703093 7.402597-18.274202 5.121648-4.561899 11.403724-7.42204 18.264992-7.42204l0 0c3.40147 0 6.841825 0.571005 10.244318 1.720178l0 0c2.859118 1.139963 5.720282 3.420913 8.001231 5.701862l0 0 283.405675 283.153942L914.558937 210.538087l5.700839-5.701862 0.560772 1.140986c1.140986-0.571005 1.720178-1.140986 2.28095-1.140986 3.420913-1.720178 6.842849-2.290159 10.283204-2.290159l0 0C940.787298 202.546066 947.068352 205.406207 951.629227 209.968106L951.629227 209.968106z" p-id="3010" fill="#15247b"></path></svg>