<?xml version="1.0" standalone="no"?><!DOCTYPE svg PUBLIC "-//W3C//DTD SVG 1.1//EN" "http://www.w3.org/Graphics/SVG/1.1/DTD/svg11.dtd"><svg t="1549543228417" class="icon" style="" viewBox="0 0 1024 1024" version="1.1" xmlns="http://www.w3.org/2000/svg" p-id="898" xmlns:xlink="http://www.w3.org/1999/xlink" width="200" height="200"><defs><style type="text/css"></style></defs><path d="M512 455.431l331.716-331.715c15.62-15.621 40.947-15.621 56.568 0 15.621 15.62 15.621 40.947 0 56.568L568.57 512l331.715 331.716c15.621 15.62 15.621 40.947 0 56.568-15.62 15.621-40.947 15.621-56.568 0L512 568.57 180.284 900.284c-15.62 15.621-40.947 15.621-56.568 0-15.621-15.62-15.621-40.947 0-56.568L455.43 512 123.716 180.284c-15.621-15.62-15.621-40.947 0-56.568 15.62-15.621 40.947-15.621 56.568 0L512 455.43z" p-id="899" fill="#15247b"></path></svg>