<?xml version="1.0" standalone="no"?><!DOCTYPE svg PUBLIC "-//W3C//DTD SVG 1.1//EN" "http://www.w3.org/Graphics/SVG/1.1/DTD/svg11.dtd"><svg t="1549537829706" class="icon" style="" viewBox="0 0 1024 1024" version="1.1" xmlns="http://www.w3.org/2000/svg" p-id="3206" xmlns:xlink="http://www.w3.org/1999/xlink" width="200" height="200"><defs><style type="text/css"></style></defs><path d="M482.333842 317.484841c0-17.637706 14.435781-31.840172 31.807427-31.840172l0 0c17.3389 0 31.775704 14.450107 31.775704 31.840172L545.916972 800.351314c0 17.637706-14.435781 31.809473-31.775704 31.809473l0 0c-17.619286 0-31.807427-14.418384-31.807427-31.809473L482.333842 317.484841zM927.372777 195.599863l0-5.507434c-1.390673-16.338107-14.989389-29.086455-31.682583-29.086455l0 0L724.730521 161.005974l0-40.164768c0-31.098275-27.882024-55.573713-63.612807-55.573713l-294.231231 0c-35.700083 0-63.611783 24.475438-63.611783 55.573713l0 39.916105L127.181099 160.757311c-17.618263 0-31.806403 14.202467-31.806403 31.840172s14.187117 31.840172 31.806403 31.840172l67.01223 0 0 671.403476c0 34.284851 28.622898 62.195527 63.582107 62.195527l512.947582 0c34.958186 0 63.582107-27.910677 63.582107-62.195527l0-671.155836 61.385069 0C912.383388 224.687342 925.982104 211.93797 927.372777 195.599863L927.372777 195.599863zM332.390831 317.484841c0-17.637706 14.187117-31.840172 31.806403-31.840172l0 0c17.618263 0 31.774681 14.450107 31.774681 31.840172L395.971915 800.351314c0 17.637706-14.404058 31.809473-31.774681 31.809473l0 0c-17.619286 0-31.806403-14.418384-31.806403-31.809473L332.390831 317.484841zM632.030236 317.484841c0-17.637706 14.434757-31.840172 31.806403-31.840172l0 0c17.588587 0 31.775704 14.450107 31.775704 31.840172L695.612343 800.351314c0 17.637706-14.433734 31.809473-31.775704 31.809473l0 0c-17.371646 0-31.806403-14.418384-31.806403-31.809473L632.030236 317.484841zM366.88546 129.165802l294.231231 0 0 31.840172-294.231231 0L366.88546 129.165802zM736.969263 894.604978c0 0-411.4397 1.485841-446.39891 1.485841-34.988886 0-33.010835-35.987632-33.010835-35.987632L257.559519 255.289314c0-36.729529 31.064506-30.601972 31.064506-30.601972l444.420859 0c0 0 37.432541-2.227738 37.432541 30.601972 0 32.800034 0.494257 577.12116 0.494257 607.970772C770.970658 893.892757 736.969263 894.604978 736.969263 894.604978L736.969263 894.604978z" p-id="3207" fill="#15247b"></path></svg>