<?xml version="1.0" standalone="no"?><!DOCTYPE svg PUBLIC "-//W3C//DTD SVG 1.1//EN" "http://www.w3.org/Graphics/SVG/1.1/DTD/svg11.dtd"><svg t="1549543266021" class="icon" style="" viewBox="0 0 1024 1024" version="1.1" xmlns="http://www.w3.org/2000/svg" p-id="1095" xmlns:xlink="http://www.w3.org/1999/xlink" width="200" height="200"><defs><style type="text/css"></style></defs><path d="M512 192H224c-17.673 0-32 14.327-32 32v576c0 17.673 14.327 32 32 32h576c17.673 0 32-14.327 32-32V536c0-22.091 17.909-40 40-40s40 17.909 40 40v264c0 61.856-50.144 112-112 112H224c-61.856 0-112-50.144-112-112V224c0-61.856 50.144-112 112-112h288c22.091 0 40 17.909 40 40s-17.909 40-40 40z m247.148 16.569L463.54 504.178l-28.517 85.085 85.086-28.517 295.609-295.609-56.569-56.568z m28.285-84.853L900.57 236.853c15.62 15.62 15.62 40.947 0 56.568L570.024 623.967a40 40 0 0 1-15.573 9.642L384.28 690.643c-31.31 10.494-61.132-19.327-50.638-50.637l57.034-170.172a40 40 0 0 1 9.642-15.572l330.546-330.546c15.621-15.621 40.948-15.621 56.569 0z" p-id="1096" fill="#15247b"></path></svg>