<?xml version="1.0" standalone="no"?><!DOCTYPE svg PUBLIC "-//W3C//DTD SVG 1.1//EN" "http://www.w3.org/Graphics/SVG/1.1/DTD/svg11.dtd"><svg t="1549443080132" class="icon" style="" viewBox="0 0 1024 1024" version="1.1" xmlns="http://www.w3.org/2000/svg" p-id="2432" xmlns:xlink="http://www.w3.org/1999/xlink" width="200" height="200"><defs><style type="text/css"></style></defs><path d="M570.10688 47.2576H453.90336v525.52192h116.1984V47.2576z m208.86016 86.8864L697.6512 214.9376c92.87168 63.45728 162.42688 173.14304 162.42688 300.05248 0 190.47936-156.544 346.28608-348.17536 346.28608-191.42656 0-348.17536-155.80672-348.17536-346.28608 0-126.90944 69.76-236.5952 168.30976-294.27712L245.0432 134.144C129.05472 220.71296 47.73376 359.18848 47.73376 514.99008c0 254.03904 209.0752 461.75232 464.16384 461.75232 255.29856 0 464.36864-207.70816 464.36864-461.75232 0.00512-155.8016-81.31072-294.27712-197.2992-380.84608z" fill="#053863" p-id="2433"></path></svg>