<?xml version="1.0" standalone="no"?><!DOCTYPE svg PUBLIC "-//W3C//DTD SVG 1.1//EN" "http://www.w3.org/Graphics/SVG/1.1/DTD/svg11.dtd"><svg class="icon" width="16px" height="16.00px" viewBox="0 0 1024 1024" version="1.1" xmlns="http://www.w3.org/2000/svg"><path d="M983.8 312.7C958 251.7 921 197 874 150c-47-47-101.7-84-162.7-109.7C648.2 13.5 581.1 0 512 0S375.8 13.5 312.7 40.3C251.7 66 197 103 150 150c-47 47-84 101.7-109.7 162.7C13.5 375.8 0 442.9 0 512s13.5 136.2 40.3 199.3C66 772.3 103 827 150 874c47 47 101.8 83.9 162.7 109.7 63.1 26.7 130.2 40.3 199.3 40.3s136.2-13.5 199.3-40.3C772.3 958 827 921 874 874c47-47 83.9-101.8 109.7-162.7 26.7-63.1 40.3-130.2 40.3-199.3s-13.5-136.2-40.2-199.3zM692 548H548v144c0 19.9-16.1 36-36 36s-36-16.1-36-36V548H332c-19.9 0-36-16.1-36-36s16.1-36 36-36h144V332c0-19.9 16.1-36 36-36s36 16.1 36 36v144h144c19.9 0 36 16.1 36 36s-16.1 36-36 36z" /></svg>