<?xml version="1.0" standalone="no"?><!DOCTYPE svg PUBLIC "-//W3C//DTD SVG 1.1//EN" "http://www.w3.org/Graphics/SVG/1.1/DTD/svg11.dtd"><svg class="icon" width="16px" height="16.00px" viewBox="0 0 1024 1024" version="1.1" xmlns="http://www.w3.org/2000/svg"><path d="M508.61301 38.385888c-264.749724 0-479.259096 214.509372-479.259096 479.259096s214.509372 479.259096 479.259096 479.259096c264.749724 0 479.259096-214.509372 479.259096-479.259096S773.362734 38.385888 508.61301 38.385888zM795.942668 759.250276c2.257993 2.257993 2.257993 5.644983 0 7.902977l-38.950386 38.950386c-2.257993 2.257993-5.644983 2.257993-7.902977 0l-241.040794-241.040794-241.040794 240.476295c-2.257993 2.257993-5.644983 2.257993-7.902977 0l-38.950386-38.950386c-2.257993-2.257993-2.257993-5.644983 0-7.902977l241.040794-241.040794L221.283352 276.60419c-2.257993-2.257993-2.257993-5.644983 0-7.902977l38.950386-38.950386c2.257993-2.257993 5.644983-2.257993 7.902977 0l241.040794 241.040794 241.605292-241.040794c2.257993-2.257993 5.644983-2.257993 7.902977 0l38.950386 38.950386c2.257993 2.257993 2.257993 5.644983 0 7.902977L556.030871 517.644983 795.942668 759.250276z" /></svg>